<?xml version="1.0" encoding="UTF-8" standalone="no"?>
<svg
   xmlns:dc="http://purl.org/dc/elements/1.1/"
   xmlns:cc="http://creativecommons.org/ns#"
   xmlns:rdf="http://www.w3.org/1999/02/22-rdf-syntax-ns#"
   xmlns:svg="http://www.w3.org/2000/svg"
   xmlns="http://www.w3.org/2000/svg"
   xmlns:sodipodi="http://sodipodi.sourceforge.net/DTD/sodipodi-0.dtd"
   xmlns:inkscape="http://www.inkscape.org/namespaces/inkscape"
   width="793.70081"
   height="1122.5197"
   viewBox="0 0 210 297"
   version="1.1"
   id="svg952"
   inkscape:version="1.0.2 (e86c870879, 2021-01-15)"
   sodipodi:docname="bikcraft-cover.svg">
  <defs
     id="defs946" />
  <sodipodi:namedview
     id="base"
     pagecolor="#ffffff"
     bordercolor="#666666"
     borderopacity="1.0"
     inkscape:pageopacity="0.0"
     inkscape:pageshadow="2"
     inkscape:zoom="0.49497475"
     inkscape:cx="-45.366575"
     inkscape:cy="320.7394"
     inkscape:document-units="px"
     inkscape:current-layer="layer1"
     inkscape:document-rotation="0"
     showgrid="false"
     units="px"
     inkscape:window-width="1366"
     inkscape:window-height="707"
     inkscape:window-x="0"
     inkscape:window-y="25"
     inkscape:window-maximized="1" />
  <metadata
     id="metadata949">
    <rdf:RDF>
      <cc:Work
         rdf:about="">
        <dc:format>image/svg+xml</dc:format>
        <dc:type
           rdf:resource="http://purl.org/dc/dcmitype/StillImage" />
        <dc:title></dc:title>
      </cc:Work>
    </rdf:RDF>
  </metadata>
  <g
     inkscape:label="Layer 1"
     inkscape:groupmode="layer"
     id="layer1">
    <rect
       style="fill:#fec63e;fill-opacity:1;stroke-width:2.11872"
       id="rect7"
       width="264.58334"
       height="264.58334"
       x="-27.29167"
       y="16.208324"
       inkscape:export-xdpi="96"
       inkscape:export-ydpi="96" />
    <g
       transform="matrix(0.52916667,0,0,0.52916667,52.083336,115.42708)"
       id="g83"
       style="fill:#000000;fill-opacity:1"
       inkscape:export-xdpi="96"
       inkscape:export-ydpi="96">
      <path
         d="m 9.25,10.187 c 3.126,-0.124 10.751,-0.374 14.628,-1.25 -0.126,1.626 -0.376,6.626 -0.376,16.125 v 4.25 c 3.5,-2.876 6.377,-4.376 9.877,-4.376 a 10.3,10.3 0 0 1 9,4.626 19.609,19.609 0 0 1 2.5,10.126 c 0,11.623 -5.5,18.249 -16.628,18.249 A 20.975,20.975 0 0 1 19.5,55.811 c -1.5,0.5 -3.5,1.5 -5.5,2.126 L 13.374,57.561 C 13.5,54.185 13.5,47.811 13.5,39.186 v -16 c 0,-4 -0.126,-6.75 -0.25,-9.124 -0.126,-1.626 -0.5,-1.876 -4.251,-1.876 z m 19,45.374 c 4.251,0 6.251,-5.126 6.251,-14.625 a 20.641,20.641 0 0 0 -1.75,-9.25 4.508,4.508 0 0 0 -4,-2.5 5.757,5.757 0 0 0 -4.627,2.75 c -0.624,0.876 -0.874,1.626 -0.874,11.5 0,8.126 0.376,8.376 0.876,9.376 a 4.5,4.5 0 0 0 4.126,2.749 z m 38.5,1.626 c -2.626,0 -5.251,-0.252 -9.377,-0.252 -4.375,0 -6.5,0.252 -8.625,0.252 v -2.126 c 3.5,-0.126 4,-0.75 4.126,-2.126 0.124,-1.5 0.25,-3.874 0.25,-7.75 v -8 c 0,-3.25 0,-5.874 -0.126,-7 -0.126,-1.126 -0.626,-1.5 -3.876,-1.374 v -2.125 c 4.377,-0.374 9.627,-0.5 13.878,-1.374 -0.126,1.626 -0.25,4.626 -0.25,11.5 v 8.626 c 0,4 0.126,5.75 0.25,7.5 0.124,1.75 0.626,2 3.75,2.374 z M 57.38,10.813 c 3.252,0 5.127,1.876 5.127,5.25 0,2.876 -2.126,4.876 -5.377,4.876 a 4.659,4.659 0 0 1 -4.875,-4.876 4.955,4.955 0 0 1 5.127,-5.25 z m 12.627,-0.626 a 92.2,92.2 0 0 0 13.628,-1.25 q -0.254,7.747 -0.252,15.5 v 15.625 c 2.376,-0.626 7.5,-6.876 9.5,-10.5 0.376,-0.75 0.376,-1.126 -0.624,-1.126 l -2.75,-0.25 v -2.124 c 4.627,0.126 9.377,-0.126 14.128,-0.376 v 2.126 c -3.5,0.376 -4.877,0.626 -6.253,1.75 a 58.49,58.49 0 0 0 -6,6.25 c 1.5,3.126 7.753,14.625 10.127,17.749 a 3.485,3.485 0 0 0 3.126,1.5 l 1.748,0.126 -0.124,2.124 a 92.689,92.689 0 0 0 -13.878,0.75 c -1.5,-3.5 -6,-12 -7.375,-14.625 -0.75,-1.374 -1.126,-1.874 -1.626,-1.75 0,5.126 -0.124,7.626 0.126,11.249 0.126,1.626 0.5,2.126 3.876,2.25 v 2.126 c -2.376,0 -4.877,-0.25 -9,-0.25 -4.877,0 -7,0.25 -8.877,0.25 v -2.126 c 3.25,-0.124 3.75,-0.748 3.876,-2 0.124,-1.5 0.248,-4.75 0.248,-11.249 V 25.812 c 0,-5.126 0,-9 -0.124,-12.249 q 0,-1.125 -1.5,-1.126 H 69.881 Z M 39.88,88.059 c -2.126,6.75 -6.251,10 -13.128,10 -5.877,0 -9.627,-1.626 -12.251,-5.126 -2,-2.624 -3,-6.5 -3,-10.874 0,-9.626 5.877,-17 16.628,-17 6.5,0 11.251,3 11.251,7.876 0,3.374 -2.75,4.748 -5,4.748 A 5.674,5.674 0 0 1 31.88,77.059 1.953,1.953 0 0 1 31,74.81 18.826,18.826 0 0 0 31.376,72.184 c 0,-3.124 -1.126,-4.624 -3.5,-4.624 C 24,67.56 22,73.186 22,80.936 c 0,3.124 0.376,6.624 1.5,8.748 1.25,2.876 3.25,4.5 6.251,4.5 3.75,0 6.127,-2.124 7.877,-7 z M 47,78.936 a 69.823,69.823 0 0 0 -0.376,-8.752 1.317,1.317 0 0 0 -1.5,-1.248 h -2.25 V 66.81 c 3.75,-0.126 8.877,-0.376 12.5,-1.5 l 0.376,0.25 c 0.25,1.5 0.5,5.126 0.626,7.376 h 0.248 c 1.628,-4.376 3.876,-7.876 8.5,-7.876 a 4.711,4.711 0 0 1 4.627,5 c 0,4.126 -3.126,5.376 -4.377,5.376 a 2.421,2.421 0 0 1 -2.5,-1.252 c -0.624,-1.374 -1,-2.124 -2.248,-2.124 -1.376,0 -2.126,1.25 -3,3.25 A 13.268,13.268 0 0 0 57,79.81 c 0,7.126 0,11.125 0.126,12.875 0.126,1.75 0.748,2.248 5.749,2.374 l -0.124,2.126 c -3.5,-0.126 -6.627,-0.252 -10.251,-0.252 -3.75,0 -6.5,0.126 -9.627,0.252 l 0.374,-2.126 c 3,-0.126 3.75,-0.5 3.75,-1.75 0.126,-1.75 0.25,-5.126 0.25,-9 V 78.934 H 47 Z m 42.381,-5.75 c 0,-3.752 -1.252,-5.752 -3.752,-5.752 -2.874,0 -4.248,1.626 -4.248,4.626 a 13.952,13.952 0 0 0 0.248,2.376 1.78,1.78 0 0 1 -0.748,1.874 6.834,6.834 0 0 1 -3.5,1.126 c -2.376,0 -4.377,-1.128 -4.377,-3.876 0,-4 5.877,-8.5 14.128,-8.5 6.749,0 9.749,2.75 10.875,4.5 a 6.28,6.28 0 0 1 1,3.376 v 18.373 c 0,2.126 0.626,2.626 1.376,2.626 1,0 2.124,-1.626 2.624,-4.376 l 2.126,1 c -1.126,5.376 -4.377,7.626 -8.877,7.626 -3.876,0 -6,-1.626 -6.627,-4.876 -3,3 -6.125,4.876 -9.375,4.876 -5.251,0 -8.751,-3.5 -8.751,-9.252 0,-3.5 1.5,-5.5 4.126,-6.624 4.248,-1.876 10.625,-3.75 13.75,-6 v -3.125 z m -7.872,13.873 c 0,2.75 1.126,5.75 3.876,5.75 2,0 2.874,-1.25 3.5,-2.5 a 9.285,9.285 0 0 0 0.374,-3 v -8.5 c -1.376,0.876 -3.5,1.876 -5.127,2.876 -1.499,1.001 -2.623,2.249 -2.623,5.374 z m 24.753,-20.873 4,0.124 v -2 c 0.126,-5.25 1.376,-9.126 4.126,-11.875 a 12.356,12.356 0 0 1 9.125,-3.75 c 5.127,0 7.877,2.5 7.877,5.75 0,2.376 -2,4 -4.753,4 a 2.362,2.362 0 0 1 -2.5,-2.5 c 0,-2.624 -0.374,-4.748 -2.248,-4.748 -1.252,0 -2,1.124 -2.252,3.25 -0.248,2 0.126,5.75 0.376,11.623 h 6.127 l -0.376,2.5 -5.751,0.376 c -0.126,2.374 -0.126,6.5 -0.126,11.373 0,4.626 0,8.75 0.126,12 0.126,1.626 0.376,2.25 1.75,2.376 a 33.34,33.34 0 0 0 3.376,0.248 l -0.254,2.126 c -2.374,0 -6.125,-0.25 -9.375,-0.25 -3.376,0 -7.377,0.25 -9.627,0.25 l 0.126,-2.126 c 3.25,-0.124 3.75,-0.5 3.876,-1.874 0.248,-2.126 0.248,-5.376 0.248,-9.75 V 68.81 l -4.248,-0.25 0.374,-2.376 z"
         transform="translate(9.002,8.939)"
         fill="#fec63e"
         id="path77"
         style="fill:#000000;fill-opacity:1" />
      <path
         d="M 89.879,43.127 89.627,45.5 82,46 c 0,2.626 -0.126,6.5 -0.126,11.751 0,5.5 0,9.251 0.252,11.5 0.124,1.626 0.748,2.376 2,2.376 2.624,0 4.249,-2.876 4.875,-5.5 h 1 L 90.879,69 c -1.5,3.626 -5.253,6.127 -10.753,6.127 -3,0 -5.625,-1 -6.875,-2.5 A 6.887,6.887 0 0 1 72,68.13 C 72,63 72.25,51.5 72.25,46 l -4,-0.376 0.25,-2.374 h 3.75 c 0.126,-2.376 0.126,-5.127 0.126,-7.627 A 34.551,34.551 0 0 0 81.752,32 l 0.75,0.126 q -0.328,5.557 -0.376,11.125 h 7.753 v -0.126 z"
         transform="translate(68.248,31.993)"
         fill="#fec63e"
         id="path79"
         style="fill:#000000;fill-opacity:1" />
      <path
         d="M 190,9.919 V 113.081 H 10 V 9.919 Z M 200,0 H 0 v 123 h 200 z"
         transform="translate(0,1)"
         fill="#fec63e"
         id="path81"
         style="fill:#000000;fill-opacity:1" />
    </g>
  </g>
</svg>
